<?xml version="1.0" encoding="iso-8859-1"?>
<!-- Generator: Adobe Illustrator 19.0.0, SVG Export Plug-In . SVG Version: 6.00 Build 0)  -->
<svg version="1.1" id="Capa_1" xmlns="http://www.w3.org/2000/svg" xmlns:xlink="http://www.w3.org/1999/xlink" x="0px" y="0px"
	 viewBox="0 0 512 512" style="enable-background:new 0 0 512 512;" xml:space="preserve">
<path style="fill:#203F49;" d="M256,0l-70,256l70,256c141.385,0,256-114.615,256-256S397.385,0,256,0z"/>
<path style="fill:#2B5C74;" d="M0,256c0,141.385,114.615,256,256,256V0C114.615,0,0,114.615,0,256z"/>
<g>
	<path style="fill:#FFFFFF;" d="M256,60l-53.594,196L256,452c108.248,0,196-87.752,196-196S364.248,60,256,60z"/>
	<path style="fill:#FFFFFF;" d="M60,256c0,108.248,87.752,196,196,196V60C147.752,60,60,147.752,60,256z"/>
</g>
<path style="fill:#203F49;" d="M303.917,327.711L256,179.651L236,335l20,57c27.57,0,50-22.43,50-50
	C306,337.331,305.28,332.389,303.917,327.711z"/>
<path style="fill:#2B5C74;" d="M208.213,327.286l-0.131,0.425C206.72,332.389,206,337.331,206,342c0,27.57,22.43,50,50,50V179.651
	L208.213,327.286z"/>
<path style="fill:#D2ECFD;" d="M181.082,181.082l-63.675-63.674C81.938,152.876,60,201.876,60,256h90
	C150,226.775,161.888,200.275,181.082,181.082z"/>
<path style="fill:#FABE5C;" d="M256,150V60c-54.124,0-103.124,21.938-138.593,57.407l63.675,63.674
	C200.276,161.888,226.776,150,256,150z"/>
<path style="fill:#FF7F67;" d="M330.918,181.082l63.675-63.674C359.124,81.938,310.124,60,256,60v90
	C285.224,150,311.724,161.888,330.918,181.082z"/>
<path style="fill:#F85B3F;" d="M330.918,181.082C350.112,200.275,362,226.775,362,256h90c0-54.124-21.938-103.124-57.407-138.593
	L330.918,181.082z"/>
<path style="fill:#7A888A;" d="M256,45l-20,15l20,15c99.804,0,181,81.196,181,181s-81.196,181-181,181l-20,15l20,15
	c116.346,0,211-94.654,211-211S372.346,45,256,45z"/>
<path style="fill:#7ACBFC;" d="M75,256c0-99.804,81.196-181,181-181V45C139.654,45,45,139.654,45,256s94.654,211,211,211v-30
	C156.196,437,75,355.804,75,256z"/>
<g>
</g>
<g>
</g>
<g>
</g>
<g>
</g>
<g>
</g>
<g>
</g>
<g>
</g>
<g>
</g>
<g>
</g>
<g>
</g>
<g>
</g>
<g>
</g>
<g>
</g>
<g>
</g>
<g>
</g>
</svg>
